{
	"asset":{
		"generator":"Khronos glTF Blender I/O v3.5.30",
		"version":"2.0"
	},
	"scene":0,
	"scenes":[
		{
			"name":"Scene",
			"nodes":[
				0
			]
		}
	],
	"nodes":[
		{
			"mesh":0,
			"name":"Plan",
			"scale":[
				42.51487731933594,
				42.51487731933594,
				42.51487731933594
			]
		}
	],
	"materials":[
		{
			"doubleSided":true,
			"name":"Mat\u00e9riau",
			"pbrMetallicRoughness":{
				"metallicFactor":0,
				"roughnessFactor":0.5
			}
		}
	],
	"meshes":[
		{
			"name":"Plan",
			"primitives":[
				{
					"attributes":{
						"POSITION":0,
						"TEXCOORD_0":1,
						"NORMAL":2
					},
					"indices":3,
					"material":0
				}
			]
		}
	],
	"accessors":[
		{
			"bufferView":0,
			"componentType":5126,
			"count":213968,
			"max":[
				1.000874400138855,
				0.2920075058937073,
				1.001493215560913
			],
			"min":[
				-0.993709921836853,
				-0.0744459480047226,
				-1.0002707242965698
			],
			"type":"VEC3"
		},
		{
			"bufferView":1,
			"componentType":5126,
			"count":213968,
			"type":"VEC2"
		},
		{
			"bufferView":2,
			"componentType":5126,
			"count":213968,
			"type":"VEC3"
		},
		{
			"bufferView":3,
			"componentType":5125,
			"count":215961,
			"type":"SCALAR"
		}
	],
	"bufferViews":[
		{
			"buffer":0,
			"byteLength":2567616,
			"byteOffset":0,
			"target":34962
		},
		{
			"buffer":0,
			"byteLength":1711744,
			"byteOffset":2567616,
			"target":34962
		},
		{
			"buffer":0,
			"byteLength":2567616,
			"byteOffset":4279360,
			"target":34962
		},
		{
			"buffer":0,
			"byteLength":863844,
			"byteOffset":6846976,
			"target":34963
		}
	],
	"buffers":[
		{
			"byteLength":7710820,
			"uri":"field_wip.bin"
		}
	]
}
